<svg xmlns="http://www.w3.org/2000/svg" xmlns:xlink="http://www.w3.org/1999/xlink" width="85" height="85" viewBox="0 0 85 85">
  <defs>
    <filter id="Elipse_89" x="0" y="0" width="85" height="85" filterUnits="userSpaceOnUse">
      <feOffset input="SourceAlpha"/>
      <feGaussianBlur stdDeviation="6" result="blur"/>
      <feFlood flood-color="#fff" flood-opacity="0.569"/>
      <feComposite operator="in" in2="blur"/>
      <feComposite in="SourceGraphic"/>
    </filter>
  </defs>
  <g id="botao_whatsapp" data-name="botao whatsapp" transform="translate(-1537 -980)">
    <g transform="matrix(1, 0, 0, 1, 1537, 980)" filter="url(#Elipse_89)">
      <circle id="Elipse_89-2" data-name="Elipse 89" cx="24.5" cy="24.5" r="24.5" transform="translate(18 18)" fill="#1eaf8e"/>
    </g>
    <path id="whatsapp-brands" d="M24.316,36.156a14.176,14.176,0,0,0-22.3,17.1L0,60.6l7.514-1.973a14.129,14.129,0,0,0,6.773,1.724h.006A14.082,14.082,0,0,0,24.316,36.156ZM14.293,57.963a11.758,11.758,0,0,1-6-1.641l-.428-.255L3.409,57.235,4.6,52.887l-.281-.447a11.8,11.8,0,1,1,21.89-6.262A11.911,11.911,0,0,1,14.293,57.963Zm6.46-8.822c-.351-.179-2.094-1.034-2.419-1.149s-.562-.179-.8.179-.913,1.149-1.124,1.392-.415.268-.766.089a9.639,9.639,0,0,1-4.82-4.213c-.364-.626.364-.581,1.041-1.934a.656.656,0,0,0-.032-.619c-.089-.179-.8-1.921-1.092-2.63-.287-.689-.581-.594-.8-.606s-.44-.013-.677-.013a1.312,1.312,0,0,0-.945.44,3.979,3.979,0,0,0-1.238,2.956A6.937,6.937,0,0,0,8.529,46.7a15.824,15.824,0,0,0,6.052,5.35c2.247.97,3.128,1.053,4.252.887a3.627,3.627,0,0,0,2.388-1.685,2.962,2.962,0,0,0,.2-1.685C21.341,49.4,21.1,49.313,20.753,49.14Z" transform="translate(1565.2 976.201)" fill="#fff"/>
  </g>
</svg>
