<svg xmlns="http://www.w3.org/2000/svg" width="110.741" height="74.594" viewBox="0 0 110.741 74.594">
  <path id="icone_incorp" data-name="icone incorp" d="M81.158,36.171a3.205,3.205,0,0,0,0-6.411,3.13,3.13,0,0,0-3.206,3.2,3.2,3.2,0,0,0,3.206,3.206m0-1.717a1.374,1.374,0,1,1,0-2.748,1.391,1.391,0,0,1,1.374,1.374,1.323,1.323,0,0,1-1.374,1.374m4.006-4.466a2.748,2.748,0,1,0,2.748-2.748,2.786,2.786,0,0,0-2.748,2.748M87,29.874a.916.916,0,1,1,.915.915A.9.9,0,0,1,87,29.874m-.62,11.657V51.968a3.45,3.45,0,0,0,.385,1.549,3.537,3.537,0,0,0,4.194,1.889V70.058a4.665,4.665,0,0,0,1.623,3.5,4.233,4.233,0,0,0,2.8,1.037c.135,0,.272-.006.41-.019a4.5,4.5,0,0,0,2.784-1.31,4.63,4.63,0,0,0,3.194,1.3,4.351,4.351,0,0,0,4.4-4.4V55.525a3.252,3.252,0,0,0,.983.155,3.6,3.6,0,0,0,3.6-3.6V41.666a9.343,9.343,0,0,0-7.085-9.165,7.035,7.035,0,0,0,1.706-4.46V26.211a6.688,6.688,0,0,0-13.375,0v1.831a6.872,6.872,0,0,0,1.679,4.466,9.8,9.8,0,0,0-7.289,9.024m16.485-13.375a4.181,4.181,0,0,1-4.073,4.075,4.078,4.078,0,0,1-4.073-4.075V26.325a4.18,4.18,0,0,1,4.073-4.073,4.078,4.078,0,0,1,4.073,4.073Zm-2.777,15.715-1.411.883-1.41-.883.724-5.478h1.374ZM99.513,35.9H97.95l-.263-1.05h2.089ZM89.286,52.359h.163V41.552a6.8,6.8,0,0,1,5.838-6.783l.585,2.339-.906,6.564a2.087,2.087,0,0,0,.987,2.106l1.826,1.141a2.1,2.1,0,0,0,2.513-.025l1.795-1.119a2.09,2.09,0,0,0,.98-2.114l-.9-6.553.585-2.339a6.893,6.893,0,0,1,5.838,6.783V51.968a.982.982,0,1,1-1.964,0V41.552a1.307,1.307,0,0,0-2.615,0V69.942a1.9,1.9,0,0,1-3.8,0V55.977a1.307,1.307,0,1,0-2.613,0V69.942a1.9,1.9,0,0,1-3.8,0V41.552a1.307,1.307,0,0,0-2.615,0V51.968a.991.991,0,0,1-1.9.391M0,50.541V71.509a2.472,2.472,0,0,0,2.5,2.5H34.581a2.472,2.472,0,0,0,2.5-2.5V43.187a2.472,2.472,0,0,0-2.5-2.5H19.872a2.472,2.472,0,0,0-2.5,2.5v5.007H2.5A2.673,2.673,0,0,0,0,50.541M24.723,66.5H29.73v5.007H24.723ZM19.716,43.187H34.581V71.509H32.39V66.5a2.472,2.472,0,0,0-2.5-2.5H24.879a2.472,2.472,0,0,0-2.5,2.5v5.007h-2.66ZM7.511,66.5h5.007v5.007H7.511ZM2.5,50.541H17.369V71.509H15.022V66.5a2.472,2.472,0,0,0-2.5-2.5H7.511a2.472,2.472,0,0,0-2.5,2.5v5.007H2.5ZM13.613,56.8H6.259a1.252,1.252,0,1,1,0-2.5h7.354a1.346,1.346,0,0,1,1.252,1.252A1.234,1.234,0,0,1,13.613,56.8m0,5.007H6.259a1.252,1.252,0,1,1,0-2.5h7.354a1.346,1.346,0,0,1,1.252,1.252c0,.626-.469,1.1-1.252,1.252M29.73,55.548A1.346,1.346,0,0,1,28.478,54.3V53.045a1.252,1.252,0,1,1,2.5,0V54.3a1.234,1.234,0,0,1-1.252,1.252m0,6.259a1.346,1.346,0,0,1-1.252-1.252V59.3a1.252,1.252,0,1,1,2.5,0v1.252a1.346,1.346,0,0,1-1.252,1.252m-5.007-6.259A1.346,1.346,0,0,1,23.471,54.3V53.045a1.252,1.252,0,1,1,2.5,0V54.3a1.234,1.234,0,0,1-1.252,1.252m0,6.259a1.346,1.346,0,0,1-1.252-1.252V59.3a1.252,1.252,0,1,1,2.5,0v1.252a1.346,1.346,0,0,1-1.252,1.252m0-12.361a1.346,1.346,0,0,1-1.252-1.252V46.942a1.252,1.252,0,1,1,2.5,0v1.252a1.346,1.346,0,0,1-1.252,1.252M39.744,69.162v2.5a2.472,2.472,0,0,0,2.5,2.5h27.07a2.472,2.472,0,0,0,2.5-2.5v-2.5a5.042,5.042,0,0,0-5.007-5.007H61.807V58.462a13.781,13.781,0,1,0,6.6-25.887,13.686,13.686,0,0,0-6.6,1.695V22.219h3.912a3.52,3.52,0,0,0,3.442,2.5h1.252a3.808,3.808,0,0,0,3.755-3.755V13.613a3.808,3.808,0,0,0-3.755-3.755h-.782l-7.98-7.98A2.359,2.359,0,0,0,59.3,0H51.949A2.409,2.409,0,0,0,49.6,1.565l-27.539,10.8h-7.2a6.11,6.11,0,0,0-6.1,6.1v1.252a2.472,2.472,0,0,0,2.5,2.5H26.131v7.354H24.879a3.808,3.808,0,0,0-3.755,3.755v1.252a2.472,2.472,0,0,0,2.5,2.5h7.354a2.472,2.472,0,0,0,2.5-2.5V33.329a3.808,3.808,0,0,0-3.755-3.755H28.478V22.219H49.446V64.154H44.439a4.69,4.69,0,0,0-4.694,5.007M29.574,32.077a1.346,1.346,0,0,1,1.252,1.252v1.252H23.471V33.329a1.346,1.346,0,0,1,1.252-1.252ZM49.446,12.361H28.791l20.655-7.98ZM59.3,3.286,51.949,10.64V2.5H59.3Zm0,9.076H53.671L59.3,6.728Zm8.606,1.252a1.346,1.346,0,0,1,1.252-1.252h1.252a1.346,1.346,0,0,1,1.252,1.252v7.354a1.346,1.346,0,0,1-1.252,1.252H69.162a1.346,1.346,0,0,1-1.252-1.252Zm-2.191-1.252H61.807V5.477l5.164,5.164a3.281,3.281,0,0,0-1.252,1.721M11.11,19.872V18.62a3.808,3.808,0,0,1,3.755-3.755H65.406v5.007ZM59.3,28.948v7.095a13.83,13.83,0,0,0-2.979,3.7l-3.906-3.906Zm-7.354,4.068V22.376H59.3v3.129ZM59.3,56.7v5.73l-6.885-6.885,3.46-3.46A13.633,13.633,0,0,0,59.3,56.7m-1.878,7.451H51.793V58.521ZM51.793,52.575V38.806l3.458,3.46a13.743,13.743,0,0,0-.617,4.079,14.051,14.051,0,0,0,.341,3.048Zm5.5-6.231A11.11,11.11,0,1,1,68.4,57.454a11.152,11.152,0,0,1-11.11-11.11M41.779,69.005a2.472,2.472,0,0,1,2.5-2.5H66.5a2.472,2.472,0,0,1,2.5,2.5v2.5H41.779ZM29.73,49.446a1.346,1.346,0,0,1-1.252-1.252V46.942a1.252,1.252,0,1,1,2.5,0v1.252a1.346,1.346,0,0,1-1.252,1.252m43.368-.6a4.49,4.49,0,0,1-3.129,5.007v.939a1.252,1.252,0,0,1-2.5,0v-.939a4.7,4.7,0,0,1-3.286-4.381,1.252,1.252,0,0,1,2.5,0,2.071,2.071,0,0,0,2.034,2.034,1.9,1.9,0,0,0,1.878-1.878A2.071,2.071,0,0,0,68.561,47.6a4.565,4.565,0,0,1-4.538-3.912,4.49,4.49,0,0,1,3.129-5.007v-.782a1.252,1.252,0,0,1,2.5,0v.626A4.514,4.514,0,0,1,73.1,42.9a1.252,1.252,0,1,1-2.5,0,2.034,2.034,0,1,0-2.034,2.034A4.565,4.565,0,0,1,73.1,48.848"/>
</svg>
