<svg xmlns="http://www.w3.org/2000/svg" width="18.731" height="18.726" viewBox="0 0 18.731 18.726">
  <path id="instagram-brands" d="M9.292,36.387a4.8,4.8,0,1,0,4.8,4.8A4.794,4.794,0,0,0,9.292,36.387Zm0,7.923a3.121,3.121,0,1,1,3.121-3.121A3.127,3.127,0,0,1,9.292,44.31Zm6.117-8.119a1.12,1.12,0,1,1-1.12-1.12A1.117,1.117,0,0,1,15.41,36.191Zm3.18,1.137A5.542,5.542,0,0,0,17.077,33.4a5.578,5.578,0,0,0-3.924-1.513c-1.546-.088-6.18-.088-7.726,0A5.57,5.57,0,0,0,1.5,33.4,5.56,5.56,0,0,0-.009,37.323c-.088,1.546-.088,6.18,0,7.726A5.542,5.542,0,0,0,1.5,48.973a5.586,5.586,0,0,0,3.924,1.513c1.546.088,6.18.088,7.726,0a5.542,5.542,0,0,0,3.924-1.513,5.578,5.578,0,0,0,1.513-3.924C18.678,43.5,18.678,38.873,18.59,37.327Zm-2,9.381a3.16,3.16,0,0,1-1.78,1.78c-1.233.489-4.158.376-5.52.376s-4.291.109-5.52-.376a3.16,3.16,0,0,1-1.78-1.78c-.489-1.233-.376-4.158-.376-5.52s-.109-4.291.376-5.52a3.16,3.16,0,0,1,1.78-1.78c1.233-.489,4.158-.376,5.52-.376s4.291-.109,5.52.376a3.16,3.16,0,0,1,1.78,1.78c.489,1.233.376,4.158.376,5.52S17.081,45.48,16.592,46.708Z" transform="translate(0.075 -31.825)" fill="#424143"/>
</svg>
