<svg xmlns="http://www.w3.org/2000/svg" width="21" height="21" viewBox="0 0 21 21">
  <path id="whatsapp-brands" d="M17.855,35.052A10.41,10.41,0,0,0,1.477,47.609L0,53l5.517-1.448a10.375,10.375,0,0,0,4.973,1.266h0a10.34,10.34,0,0,0,7.359-17.766ZM10.5,51.064a8.634,8.634,0,0,1-4.406-1.2l-.314-.187L2.5,50.53l.872-3.192-.206-.328a8.666,8.666,0,1,1,16.073-4.6A8.746,8.746,0,0,1,10.5,51.064Zm4.744-6.478c-.258-.131-1.537-.759-1.777-.844s-.413-.131-.586.131-.67.844-.825,1.022-.3.2-.562.066A7.078,7.078,0,0,1,7.95,41.867c-.267-.459.267-.427.764-1.42a.482.482,0,0,0-.023-.455c-.066-.131-.586-1.411-.8-1.931s-.427-.436-.586-.445-.323-.009-.5-.009a.963.963,0,0,0-.694.323A2.922,2.922,0,0,0,5.2,40.1a5.094,5.094,0,0,0,1.059,2.691,11.619,11.619,0,0,0,4.444,3.928,5.088,5.088,0,0,0,3.122.652,2.663,2.663,0,0,0,1.753-1.237,2.175,2.175,0,0,0,.15-1.237C15.67,44.778,15.5,44.713,15.239,44.586Z" transform="translate(0 -32)" fill="#1eaf8e"/>
</svg>
