<svg xmlns="http://www.w3.org/2000/svg" width="18.72" height="18.72" viewBox="0 0 18.72 18.72">
  <path id="linkedin-brands" d="M17.383,32H1.333A1.343,1.343,0,0,0,0,33.35V49.37a1.343,1.343,0,0,0,1.333,1.35h16.05a1.346,1.346,0,0,0,1.337-1.35V33.35A1.346,1.346,0,0,0,17.383,32ZM5.658,48.046H2.883V39.112H5.662v8.934ZM4.271,37.892a1.609,1.609,0,1,1,1.609-1.609A1.609,1.609,0,0,1,4.271,37.892ZM16.058,48.046H13.284V43.7c0-1.036-.021-2.369-1.442-2.369-1.446,0-1.667,1.128-1.667,2.294v4.421H7.4V39.112h2.662v1.22H10.1a2.922,2.922,0,0,1,2.628-1.442c2.808,0,3.33,1.851,3.33,4.258Z" transform="translate(0 -32)" fill="#424143"/>
</svg>
